<svg width="571" height="433" viewBox="0 0 571 433" fill="none" xmlns="http://www.w3.org/2000/svg">
<path d="M312.366 73.1021L415.695 1L430.62 15.5126L445.086 26.5697L467.36 39.7002L514.891 65.2699L538.542 83.0075H570V110.65L550.253 180.219L531.424 221.453L514.891 239.881L499.277 264.069L489.403 267.294L476.315 275.126L467.36 281.115L456.108 294.246L450.827 301.387V316.591H371.148H266.441L206.51 321.198L198.474 344.003L203.755 365.657L206.51 404.357L141.069 390.766L104.329 400.441L61.1606 432L51.5165 413.571L1 381.552L5.59241 363.123L22.5843 347.459L30.6211 344.003H44.1687L56.109 335.48V327.648L61.1606 309.91L73.5601 301.387L104.329 288.257L118.107 281.115L134.41 267.294L145.661 264.069L150.253 248.405L170.46 230.667L189.289 214.772L206.51 204.406L223.962 172.847L245.087 145.435L252.205 130.231L257.946 113.875H266.441L312.366 73.1021Z" fill="#0095FF" fill-opacity="0.2" stroke="black"/>
</svg>
