<svg width="1096" height="1015" viewBox="0 0 1096 1015" fill="none" xmlns="http://www.w3.org/2000/svg">
<path d="M964.116 173.148L1010.81 191.367L998.159 230.342L1003.45 282.233L1015.87 303.681L1010.81 322.13L1021.16 332.509V344.501V364.335L1003.45 384.399V422.913L980.447 439.979L973.087 457.737L985.508 565.899L1032.2 596.341L1095 702.889L938.353 860.636L715.228 1014L303.023 872.397L199.742 823.736L1 699.891L11.3511 694.126L122.913 510.319L144.996 482.183V430.985L157.417 410.459V391.087L167.768 324.437L153.737 248.792L167.768 220.656L193.071 208.895L198.132 199.208L212.163 182.142L216.701 163V124.025L229.185 102.347C229.952 96.6579 230.151 84.0812 224.815 79.2842C219.478 74.4873 240.226 65.4469 251.267 61.5263C266.832 56.0682 299.711 42.2 306.704 30.3921C321.425 -9.82854 365.59 -0.203873 385.832 9.63605L515.796 136.248L541.559 145.242L616.318 182.142L634.029 199.208H665.083L697.516 208.895L772.965 182.142L829.781 173.148L902.929 182.142L950.084 168.997L964.116 173.148Z" fill="#0095FF" fill-opacity="0.2" stroke="black"/>
</svg>
