<svg width="762" height="322" viewBox="0 0 762 322" fill="none" xmlns="http://www.w3.org/2000/svg">
<path d="M62.5842 17.0804L1 34.7688L30.5235 66.4702L62.5842 103.455L105.716 144.575L148.387 187.073L189.904 227.734L224.964 260.813L256.332 288.38L294.621 309.744L341.674 321L409.486 316.635L714.408 250.935L731.477 220.842L747.161 176.506L755.926 153.534L761 128.495V103.455L750.851 82.7803L686.961 62.1055L664.818 49.0115H606.002L590.317 53.3762H551.337L486.754 70.3755L441.546 74.051L381.807 49.0115L349.977 53.3762L224.964 23.5126L176.757 1H141.467L76.8847 12.7157L62.5842 17.0804Z" fill="#0095FF" fill-opacity="0.2" stroke="black"/>
</svg>
