<svg width="431" height="637" viewBox="0 0 431 637" fill="none" xmlns="http://www.w3.org/2000/svg">
<path d="M299.916 38.4428L387.792 1L395.865 31.092L380.411 38.4428L364.958 62.792L376.721 89.2087L380.411 180.633L392.174 204.064L406.935 260.802V371.982L426.31 444.341L430 539.211H400.477H336.127L298.994 552.534H252.403L207.427 544.494L171.216 552.534L113.555 595.949L65.35 635V573.897L75.729 516.47L65.35 476.041L38.8258 434.004L1 371.982V334.539H14.3774L48.2823 320.527L93.4887 275.504L100.869 233.007L118.629 180.633L107.558 142.961L112.632 121.598V87.8304L159.223 12.7152L188.976 21.4442L299.916 38.4428Z" fill="#0095FF" fill-opacity="0.2" stroke="black"/>
</svg>
