<svg width="520" height="512" viewBox="0 0 520 512" fill="none" xmlns="http://www.w3.org/2000/svg">
<path d="M363.923 1L383.509 91.1223L385.583 96.2062L395.03 136.646L407.473 189.564V236.242L435.355 276.682L460.011 306.723L499.414 327.52L519 357.561L506.557 365.88L488.123 400.08L441.577 415.563L407.473 434.28L395.03 468.481L342.262 501.757L294.794 511L202.624 459.237L100.314 400.08L43.3986 388.757L52.8461 373.043L43.3986 339.999L37.177 293.32L69.2064 255.884L140.639 189.564L119.9 172.001L100.314 162.527L43.3986 142.885L1 102.445L37.177 64.0856L119.9 8.16357L180.964 17.4069L311.155 1H363.923Z" fill="#0095FF" fill-opacity="0.2" stroke="black"/>
</svg>
