<svg width="368" height="312" viewBox="0 0 368 312" fill="none" xmlns="http://www.w3.org/2000/svg">
<path d="M348.343 59.0672V27.1418L341.433 21.1269L334.062 23.903L330.838 43.7985L309.647 50.7388L291.451 38.709L285.001 27.1418H238.704L199.778 35.9328L146.34 27.1418L87.8357 1L1 176.127L285.001 311V304.985V284.396L296.979 270.515H320.703L328.074 242.754L338.208 228.179L357.556 217.537V199.955L367 181.679L363.545 164.56L367 151.142L341.433 148.366L334.062 135.873H345.118L348.343 121.299L341.433 109.731L345.118 92.1493L338.208 73.8731L348.343 59.0672Z" fill="#0095FF" fill-opacity="0.2" stroke="black"/>
</svg>
