<svg width="658" height="530" viewBox="0 0 658 530" fill="none" xmlns="http://www.w3.org/2000/svg">
<path d="M195.064 81.5033L280.369 1H283.128L557.669 3.53735L657 38.3683L620.9 110.567V129.021L601.816 149.089L582.732 175.385L541.573 202.604L526.398 227.286L500.875 252.89L508.233 279.417L516.741 308.942L528.237 347.003V402.132L516.741 430.735L508.233 472.948L494.667 529L471.444 522.772L424.997 529L381.77 510.085L356.477 522.772L343.831 515.391L280.369 465.566L171.841 418.048H120.106L42.1581 452.879V430.735L23.0736 380.911L15.7157 279.417L1 252.89L7.2082 238.127L29.5117 221.058V187.38L195.064 81.5033Z" fill="#0095FF" fill-opacity="0.2" stroke="black"/>
</svg>
