<svg width="512" height="451" viewBox="0 0 512 451" fill="none" xmlns="http://www.w3.org/2000/svg">
<path d="M222.94 5.60277L120.755 1L113.588 46.1071L97.8676 99.4992L80.7598 138.623L65.7326 156.804L40.9955 186.722L18.5703 195.927L1 217.33V232.979H23.194L69.6627 240.804L105.728 249.319L142.949 261.747L171.154 284.53L206.526 317.901L235.887 352.421L265.479 384.18L281.199 401.901L303.393 420.772L330.211 430.438L355.18 435.731L381.997 443.556L405.578 450L511 261.747L484.876 240.804L393.788 149.669L330.211 89.6033L285.823 42.1948L260.855 17.3398L251.607 12.7371L222.94 5.60277Z" fill="#0095FF" fill-opacity="0.2" stroke="black"/>
</svg>
