<svg width="282" height="387" viewBox="0 0 282 387" fill="none" xmlns="http://www.w3.org/2000/svg">
<path d="M189.751 26.3593L197.394 6.76347L182.34 1L169.371 2.61377L159.644 16.4461L143.895 26.3593L129.304 34.4281L116.567 29.3563L95.7229 16.4461L84.1431 12.5269L66.5418 20.1347L63.0678 26.3593L55.6567 34.4281L66.5418 40.8832L88.0802 45.494L84.1431 53.5629V70.8533L76.5004 83.5329V112.581L48.0141 132.868V145.548L41.0662 168.602L33.4235 163.53L16.0538 168.602L1 184.74L6.32672 205.027L28.3284 216.093L23.6964 246.063H6.32672V277.416H23.6964V296.551L41.0662 313.841L23.6964 365.251L16.0538 374.012L12.1166 382.081L129.304 386L201.331 288.482L242.555 256.668L281 234.536L265.251 196.958L218.932 168.602L192.762 145.548L178.171 108.431L175.16 83.5329L185.119 58.1737L189.751 26.3593Z" fill="#0095FF" fill-opacity="0.2" stroke="black"/>
</svg>
