<svg width="191" height="287" viewBox="0 0 191 287" fill="none" xmlns="http://www.w3.org/2000/svg">
<path d="M140.736 256.158L187.698 10.4846H190L167.44 1L164.217 6.32062L148.102 15.1112H129.456L98.6078 10.4846L87.5579 15.1112L56.4799 18.8125L53.257 42.8709L49.5737 46.1096L42.6675 62.0714V72.25H56.4799L66.1486 69.0114L72.134 103.248L49.5737 141.418H45.43H16.6541L12.0499 162.7L14.352 202.721L1 219.839L5.14373 233.95V256.158L16.6541 266.799L27.0134 262.173L53.257 276.978L76.2777 286L87.5579 272.351L105.054 266.799L114.722 250.606L140.736 256.158Z" fill="#0095FF" fill-opacity="0.2" stroke="black"/>
</svg>
