<svg width="490" height="618" viewBox="0 0 490 618" fill="none" xmlns="http://www.w3.org/2000/svg">
<path d="M254.003 42.2819L287.013 36.055L290.707 59.1176L322.563 111.931L361.806 183.194L364.114 218.249L352.111 274.522V330.102L396.894 372.768L424.595 384.53L465.685 391.218L489 417.74L445.371 459.944L388.122 528.209L385.352 552.425L400.357 580.331L402.665 602.701L390.2 617L371.963 597.397L330.181 559.574L281.011 535.82L238.767 537.204L197.908 548.043L172.285 568.338L109.957 606.852L88.4891 568.338L24.7767 524.75L16.6973 506.992L2.38505 475.165L1 456.254L11.3879 431.347L15.3122 397.906L24.7767 371.384L61.4806 165.666L71.8685 122.77L80.1788 98.5545L77.6395 78.4901L64.7124 48.97L60.7881 27.2913L73.4844 1L96.5686 25.9075L108.803 36.055H142.968L187.751 27.2913L193.753 15.9906L206.68 14.8375L230.226 38.8225L254.003 42.2819Z" fill="#0095FF" fill-opacity="0.2" stroke="black"/>
</svg>
