<svg width="886" height="561" viewBox="0 0 886 561" fill="none" xmlns="http://www.w3.org/2000/svg">
<path d="M885 148.408L880.856 130.904L864.051 164.301L830.901 185.03L801.895 200.232H763.91L560.406 91.5179H536.234L516.897 82.5352L475.459 36.9308L432.641 16.2015L400.642 1H368.873L326.745 11.3646L289.451 36.9308L190.461 91.5179L149.715 126.758L79.7313 220.27H7.90625L1 400.845L16.1938 509.559L45.8906 492.975L130.377 482.611L180.793 488.829L195.296 468.1H263.668L289.451 488.829L467.863 478.465L617.268 515.778L673.899 509.559H709.811L777.032 560L801.895 531.67V478.465L811.564 462.572V442.534L823.304 375.97L811.564 299.962L823.304 273.475L848.167 258.965L856.454 242.381L871.878 227.18L876.022 171.211L885 148.408Z" fill="#0095FF" fill-opacity="0.2" stroke="black"/>
</svg>
