<svg width="453" height="312" viewBox="0 0 453 312" fill="none" xmlns="http://www.w3.org/2000/svg">
<path d="M378.629 260.985L413.022 277.81L400.182 239.32V208.204L419.671 186.539L440.536 143.208L452 110.019L425.632 105.178L406.831 110.019H378.629L340.11 95.7286L303.195 105.178L266.739 74.7546L229.825 45.7138L159.893 7.9145L122.749 1H71.6192L25.7626 18.0558L1 39.0297V83.052V138.368L17.7377 208.204V239.32L25.7626 311H35.1632L116.788 283.342L178.007 251.535H220.424L258.714 267.669L266.739 257.528L278.203 251.535L293.107 229.87L311.22 218.346L326.811 186.539H340.11L360.975 218.346L378.629 260.985Z" fill="#0095FF" fill-opacity="0.2" stroke="black"/>
</svg>
