<svg width="512" height="634" viewBox="0 0 512 634" fill="none" xmlns="http://www.w3.org/2000/svg">
<path d="M408.908 1H511V4.68111V13.8839L506.861 21.016L502.262 27.688V32.7495V39.6516H497.204V45.6334L492.605 49.5446L481.568 55.2963L470.991 64.269L464.323 71.8613L470.991 81.5242V95.5584L464.323 106.832V117.185L458.344 129.149L444.088 136.741L435.121 159.058L429.142 182.985L435.121 219.566L429.142 249.475L425.464 277.773L414.427 305.382L402.47 322.637L398.561 335.29L402.47 352.316L408.448 370.261L402.47 382.915L398.561 398.79L393.502 418.806V431.459L402.47 447.104L393.502 458.378L378.556 494.268L376.947 516.585L378.556 545.804L372.578 574.792L364.3 601.02L358.322 633L346.365 627.938L313.714 618.045H294.859L260.599 627.938H232.316L181.5 623.337H134.593L113.669 627.938L104.702 618.045L96.4238 606.312L91.3652 589.747L84.4671 581.464V567.43V545.804V533.15L75.7295 524.867V512.904L91.3652 506.922L96.4238 494.268L91.3652 471.031L84.4671 458.378V447.104L71.1308 436.061L75.7295 431.459L61.4734 418.806L40.5491 403.161L19.6249 389.817L10.6573 377.163V359.908L1 344.263V314.354L10.6573 270.411L6.28855 243.493V200.24L33.1912 182.985L51.1262 175.622L75.7295 159.058L91.3652 136.741L123.326 112.814L159.886 86.5857L187.479 75.7725H213.692L256.92 86.5857L268.187 85.6655V75.7725L265.427 49.5446L261.978 32.7495L260.599 21.016L265.427 13.8839L269.796 4.68111L290.95 3.07062L310.495 1H333.949H367.749H408.908Z" fill="#0095FF" fill-opacity="0.2" stroke="black"/>
</svg>
