<svg width="472" height="389" viewBox="0 0 472 389" fill="none" xmlns="http://www.w3.org/2000/svg">
<path d="M256.61 61.246L311.416 1L332.372 22.615L346.649 55.0374L366.914 79.4118L391.323 91.5989L385.106 125.401L391.323 147.016L450.045 183.348L471 226.578L456.723 215.77L439.912 226.578L407.443 211.171L380.961 215.77L366.914 211.171L337.899 200.824L308.653 230.717L315.561 242.904L276.184 259L268.124 298.781L153.905 306.829L120.054 339.251L80.9069 349.369V373.053L58.5698 388L43.6017 320.396L1 125.401L64.5571 109.765L174.861 61.246H195.816L235.655 79.4118L256.61 61.246Z" fill="#0095FF" fill-opacity="0.2" stroke="black"/>
</svg>
