<svg width="524" height="485" viewBox="0 0 524 485" fill="none" xmlns="http://www.w3.org/2000/svg">
<path d="M396.531 19.2134L414.73 28.8964L415.882 112.586L414.73 171.606L421.18 188.897V217.716L465.179 247.918L479.231 266.131L494.205 287.572L500.655 303.711V336.91L484.53 349.821L494.205 372.414V410.916L512.403 448.495L523 464.634L453.431 484L434.08 478.467L396.531 484L379.485 464.634L351.611 448.495L293.56 421.752L278.586 418.524L137.144 287.572L87.8464 275.814L59.9726 247.918L33.0203 228.552L1 188.897L19.1986 171.606L26.5702 149.243L59.9726 136.332L70.5693 121.347L96.3698 107.283H150.966L211.09 95.5251L222.838 56.7928L257.162 43.8821L250.712 28.8964L257.162 19.2134L288.261 1L317.287 19.2134L346.082 10.6831L379.485 28.8964L396.531 19.2134Z" fill="#0095FF" fill-opacity="0.2" stroke="black"/>
</svg>
