<svg width="983" height="627" viewBox="0 0 983 627" fill="none" xmlns="http://www.w3.org/2000/svg">
<path d="M797.501 83.334L723.794 1L651.238 55.428L552.193 50.8155L458.907 90.0221L370.228 129.69L218.898 165.668H184.347L135.286 185.271H104.19L89.6793 170.972L68.9491 144.22L37.6234 112.854L30.9436 133.611L27.0279 153.214V176.046V195.188L30.9436 208.103L37.6234 219.865L41.5391 232.319V243.389V255.151L49.3705 266.913L45.4548 277.983V291.129L30.9436 315.345L27.0279 347.172L1 376.692V411.978L12.7471 494.081L57.2019 524.985L124.23 626L207.15 565.345L293.987 517.605L707.44 361.701L760.187 354.321L825.602 342.559L868.444 335.41L908.293 326.415L939.618 310.732L965.646 291.129L974.86 278.675L982 261.148L978.084 164.284L974.86 136.839L955.281 147.448H933.86L882.956 110.087L797.501 83.334Z" fill="#0095FF" fill-opacity="0.2" stroke="black"/>
</svg>
