<svg width="690" height="711" viewBox="0 0 690 711" fill="none" xmlns="http://www.w3.org/2000/svg">
<path d="M21.2488 547.963L1 633.476L21.2488 652.376L30.2227 665.515L39.4268 680.497L58.295 702.163L87.0575 710L111.678 702.163L148.264 689.716L191.293 684.415L250.429 670.816L313.706 656.986L352.133 645.923L421.854 611.349L468.794 591.065L517.575 572.856L617.899 576.774L689 522.608L672.663 500.942L651.954 482.733L644.821 489.878H613.987H593.969L503.999 446.776L514.354 428.567L526.089 408.283L537.824 384.081L544.957 365.872V339.135V302.025V280.359V260.767V249.703L555.542 219.739L526.089 207.984L481.91 200.147L443.943 177.328L406.207 138.144L355.355 80.751L299.44 32.3472L247.898 14.1382L215.914 7.68433L156.088 1L150.795 17.3651L145.043 32.3472L139.751 41.567L133.308 52.6307L122.723 61.8505L111.678 68.9958L107.076 74.7581L111.678 80.751V87.8963V95.0416V106.105L107.076 113.251V119.243L102.474 130.999L83.606 143.445L71.4107 180.555L74.6321 223.657V271.831L65.4281 291.423L51.1619 322.078L43.3385 348.355L51.1619 372.326L43.3385 397.911L36.2054 428.567L46.5599 446.776L39.4268 457.839L25.1605 477.431L21.2488 500.942V547.963Z" fill="#0095FF" fill-opacity="0.2" stroke="black"/>
</svg>
