<svg width="633" height="421" viewBox="0 0 633 421" fill="none" xmlns="http://www.w3.org/2000/svg">
<path d="M486.687 1L632 77.497L584.334 157.461L590.813 185.656L581.326 208.536L588.267 226.1V267.699L569.293 319.699V344.659L515.611 394.809L476.275 403.36L472.804 413.298L446.888 420H420.973L392.743 394.809H380.711L372.612 405.902L332.35 416.071L290.7 413.298L258.305 381.867L280.75 333.103L239.563 316.926L210.871 310.454L205.78 321.548L193.748 323.859L189.12 315.308H178.476L175.468 310.454L165.055 304.677L164.361 312.534L152.56 301.21L124.562 292.89C122.81 293.227 119.597 293.787 119.061 293.676C119.127 294.698 117.707 303.056 116.926 307.45L123.637 335.876L116.926 333.103L107.208 310.454L77.59 308.143L72.4995 297.512L60.93 291.272L58.8475 297.512H50.0546L44.2699 304.677L1 299.824L5.39641 282.721L88.234 202.065L181.947 178.029L228.688 145.443L265.479 83.7369L359.886 23.6486L486.687 1Z" fill="#0095FF" fill-opacity="0.2"/>
<path d="M632 77.497L486.687 1L359.886 23.6486L265.479 83.7369L228.688 145.443L181.947 178.029L88.234 202.065L5.39641 282.721L1 299.824L44.2699 304.677L50.0546 297.512H58.8475L60.93 291.272L72.4994 297.512L77.59 308.143L107.208 310.455L116.926 333.103L123.637 335.876L116.926 307.45C117.775 302.674 119.379 293.214 119.009 293.584C118.639 293.953 122.557 293.275 124.562 292.89L152.56 301.21L164.361 312.534L165.055 304.677L175.468 310.455L178.476 315.308H189.12L193.748 323.859L205.78 321.548L210.871 310.455L239.563 316.926L280.75 333.103L258.305 381.867L290.7 413.298L332.35 416.071L372.612 405.902L380.711 394.809H392.743L420.972 420H446.888L472.804 413.298L476.275 403.36L515.611 394.809L569.293 344.659V319.699L588.267 267.699V226.1L581.326 208.536L590.813 185.656L584.334 157.461L632 77.497Z" stroke="black"/>
</svg>
