<svg width="1079" height="863" viewBox="0 0 1079 863" fill="none" xmlns="http://www.w3.org/2000/svg">
<path d="M136.576 651.303L294.748 861.078L298.899 862L294.748 853.471L328.412 798.145L422.485 691.875L491.656 643.465L539.154 617.647L705.857 506.996L919.136 323.961L958.103 280.854L1078 88.1373L1007.21 39.0361H979.546L926.053 46.8739L768.803 7.91566L729.145 18.2892H587.574L561.52 1H489.812L475.286 13.2177H426.866L341.324 24.2827L319.65 39.0361L260.163 58.861L178.079 126.173L66.7129 192.794L22.6737 205.704L1 259.185L7.91715 367.069L22.6737 413.865L136.576 651.303Z" fill="#0095FF" fill-opacity="0.2" stroke="black"/>
</svg>
