<svg width="273" height="231" viewBox="0 0 273 231" fill="none" xmlns="http://www.w3.org/2000/svg">
<path d="M268.082 24.108L272 33.3512L253.795 49.5267L249.417 64.3158L236.281 55.5348L215.081 61.3118L203.789 85.5752V101.751L209.32 135.026L195.032 147.273L198.95 172.923L186.276 196.493V220.064L198.95 230L128.435 226.996L1 138.492L47.0884 97.3602L81.8852 5.39051L124.978 12.3229L134.196 5.39051L139.726 1H146.409L152.861 5.39051L158.853 18.0999H186.276L191.115 24.108L195.032 38.8971L203.789 43.2876L198.95 12.3229V1H209.32L232.364 8.39455L243.425 21.5661L245.96 12.3229L258.634 21.5661L268.082 24.108Z" fill="#0095FF" fill-opacity="0.2" stroke="black"/>
</svg>
